name ./resultDataOpenSim/trcMotMarkerGrf/sub06/grf-05-05.mot
datacolumns 19
datarows 17
range 1.51200000 1.57600000
endheader

                time	     ground_force_vx	     ground_force_vy	     ground_force_vz	     ground_force_px	     ground_force_py	     ground_force_pz	   l_ground_force_vx	   l_ground_force_vy	   l_ground_force_vz	   l_ground_force_px	   l_ground_force_py	   l_ground_force_pz	     ground_torque_x	     ground_torque_y	     ground_torque_z	   l_ground_torque_x	   l_ground_torque_y	   l_ground_torque_z	
          1.51200000	         76.60027930	        490.70517934	        -22.96680963	          0.83802811	          0.00000000	          0.15930967	          0.00000000	          0.00000000	          0.00000000	          0.00000000	          0.00000000	          0.00000000	          0.00000000	          3.04562562	          0.00000000	          0.00000000	          0.00000000	          0.00000000	
          1.51600000	         81.28458360	        511.06580972	        -24.86156234	          0.83814333	          0.00000000	          0.15924290	          0.00000000	          0.00000000	          0.00000000	          0.00000000	          0.00000000	          0.00000000	          0.00000000	          3.21073976	          0.00000000	          0.00000000	          0.00000000	          0.00000000	
          1.52000000	         86.40781574	        531.60234033	        -27.48605894	          0.83822145	          0.00000000	          0.15922222	          0.00000000	          0.00000000	          0.00000000	          0.00000000	          0.00000000	          0.00000000	          0.00000000	          3.42246152	          0.00000000	          0.00000000	          0.00000000	          0.00000000	
          1.52400000	         92.15740998	        552.19370962	        -30.62185823	          0.83824698	          0.00000000	          0.15924496	          0.00000000	          0.00000000	          0.00000000	          0.00000000	          0.00000000	          0.00000000	          0.00000000	          3.65447347	          0.00000000	          0.00000000	          0.00000000	          0.00000000	
          1.52800000	         98.66300564	        572.71973847	        -33.96608706	          0.83821459	          0.00000000	          0.15929750	          0.00000000	          0.00000000	          0.00000000	          0.00000000	          0.00000000	          0.00000000	          0.00000000	          3.87614911	          0.00000000	          0.00000000	          0.00000000	          0.00000000	
          1.53200000	        105.95347809	        593.06984270	        -37.18959162	          0.83812995	          0.00000000	          0.15935420	          0.00000000	          0.00000000	          0.00000000	          0.00000000	          0.00000000	          0.00000000	          0.00000000	          4.06003286	          0.00000000	          0.00000000	          0.00000000	          0.00000000	
          1.53600000	        113.93417225	        613.13274673	        -39.99462084	          0.83801141	          0.00000000	          0.15939027	          0.00000000	          0.00000000	          0.00000000	          0.00000000	          0.00000000	          0.00000000	          0.00000000	          4.18860781	          0.00000000	          0.00000000	          0.00000000	          0.00000000	
          1.54000000	        122.39296860	        632.78157176	        -42.16747047	          0.83788715	          0.00000000	          0.15938766	          0.00000000	          0.00000000	          0.00000000	          0.00000000	          0.00000000	          0.00000000	          0.00000000	          4.25839237	          0.00000000	          0.00000000	          0.00000000	          0.00000000	
          1.54400000	        131.03486400	        651.86190500	        -43.61616880	          0.83778981	          0.00000000	          0.15933311	          0.00000000	          0.00000000	          0.00000000	          0.00000000	          0.00000000	          0.00000000	          0.00000000	          4.28014166	          0.00000000	          0.00000000	          0.00000000	          0.00000000	
          1.54800000	        139.53969124	        670.18101634	        -44.38238824	          0.83775487	          0.00000000	          0.15922154	          0.00000000	          0.00000000	          0.00000000	          0.00000000	          0.00000000	          0.00000000	          0.00000000	          4.27513685	          0.00000000	          0.00000000	          0.00000000	          0.00000000	
          1.55200000	        147.63619548	        687.50460833	        -44.62316721	          0.83781376	          0.00000000	          0.15905779	          0.00000000	          0.00000000	          0.00000000	          0.00000000	          0.00000000	          0.00000000	          0.00000000	          4.26873289	          0.00000000	          0.00000000	          0.00000000	          0.00000000	
          1.55600000	        155.18289600	        703.57191081	        -44.56668874	          0.83798191	          0.00000000	          0.15885684	          0.00000000	          0.00000000	          0.00000000	          0.00000000	          0.00000000	          0.00000000	          0.00000000	          4.28310030	          0.00000000	          0.00000000	          0.00000000	          0.00000000	
          1.56000000	        162.23295412	        718.12785895	        -44.45598323	          0.83825263	          0.00000000	          0.15863990	          0.00000000	          0.00000000	          0.00000000	          0.00000000	          0.00000000	          0.00000000	          0.00000000	          4.33129696	          0.00000000	          0.00000000	          0.00000000	          0.00000000	
          1.56400000	        169.02726302	        730.95137784	        -44.50329307	          0.83858421	          0.00000000	          0.15842482	          0.00000000	          0.00000000	          0.00000000	          0.00000000	          0.00000000	          0.00000000	          0.00000000	          4.41448240	          0.00000000	          0.00000000	          0.00000000	          0.00000000	
          1.56800000	        175.87754441	        741.86211547	        -44.86459433	          0.83890266	          0.00000000	          0.15822284	          0.00000000	          0.00000000	          0.00000000	          0.00000000	          0.00000000	          0.00000000	          0.00000000	          4.52320791	          0.00000000	          0.00000000	          0.00000000	          0.00000000	
          1.57200000	        183.00878367	        750.72113609	        -45.61339349	          0.83916001	          0.00000000	          0.15804205	          0.00000000	          0.00000000	          0.00000000	          0.00000000	          0.00000000	          0.00000000	          0.00000000	          4.64216712	          0.00000000	          0.00000000	          0.00000000	          0.00000000	
          1.57600000	        190.47850348	        757.44821784	        -46.71047886	          0.83936945	          0.00000000	          0.15788186	          0.00000000	          0.00000000	          0.00000000	          0.00000000	          0.00000000	          0.00000000	          0.00000000	          4.75608929	          0.00000000	          0.00000000	          0.00000000	          0.00000000	
